<?xml version="1.0" encoding="utf-8"?>
<!-- Generator: Adobe Illustrator 15.1.0, SVG Export Plug-In . SVG Version: 6.00 Build 0)  -->
<!DOCTYPE svg PUBLIC "-//W3C//DTD SVG 1.1//EN" "http://www.w3.org/Graphics/SVG/1.1/DTD/svg11.dtd">
<svg version="1.1" xmlns="http://www.w3.org/2000/svg" xmlns:xlink="http://www.w3.org/1999/xlink" x="0px" y="0px" width="300px"
	 height="300px" viewBox="0 0 300 300" enable-background="new 0 0 300 300" xml:space="preserve">
<g id="Layer_1" display="none">
	<path display="inline" fill="#E6E7E8" d="M250,87.974c-7.358,3.264-15.267,5.469-23.566,6.461
		c8.471-5.078,14.978-13.119,18.041-22.701c-7.929,4.703-16.71,8.117-26.057,9.957c-7.484-7.975-18.148-12.957-29.95-12.957
		c-22.66,0-41.033,18.371-41.033,41.031c0,3.216,0.363,6.348,1.062,9.351c-34.102-1.711-64.336-18.047-84.574-42.872
		c-3.532,6.06-5.556,13.108-5.556,20.628c0,14.236,7.244,26.795,18.254,34.153c-6.726-0.213-13.053-2.059-18.585-5.132
		c-0.004,0.171-0.004,0.343-0.004,0.516c0,19.88,14.144,36.464,32.915,40.234c-3.443,0.938-7.068,1.439-10.81,1.439
		c-2.644,0-5.214-0.258-7.72-0.736c5.222,16.301,20.375,28.165,38.331,28.495c-14.043,11.006-31.735,17.565-50.96,17.565
		c-3.312,0-6.578-0.194-9.788-0.574c18.159,11.643,39.727,18.437,62.899,18.437c75.473,0,116.746-62.524,116.746-116.747
		c0-1.779-0.04-3.548-0.119-5.309C237.543,103.429,244.499,96.202,250,87.974z"/>
</g>
<g id="Layer_2">
	<path fill-rule="evenodd" clip-rule="evenodd" fill="#E6E7E8" d="M255.096,147.648c0-0.318,0-0.639,0-0.958
		c-13.88-2.466-30.18-3.776-46.639-2.868c3.568-13.379,2.955-30.68-1.913-40.422c-0.792-1.584-2.048-3.978-3.35-5.74
		c-1.287-1.748-3.798-3.52-4.064-5.023c-0.317-1.794,1.047-4.424,1.197-6.458c0.512-7.041-0.994-12.846-3.11-18.177
		c-11.722-0.457-19.12,5.42-26.787,9.807c-12.832-3.225-28.781-3.443-42.336-0.718c-2.016,0.405-4.218,1.322-5.501,1.196
		c-1.739-0.171-4.013-2.312-6.218-3.589c-6.014-3.48-12.777-7.141-21.527-6.696c-3.455,6.128-4.664,18.752-1.434,26.07
		c-4.052,5.512-8.712,12.357-10.045,21.287c-1.477,9.879,0.447,20.104,2.869,27.982c-16.063,0.202-31.873,0.654-45.444,3.349
		c0,0.319,0,0.64,0,0.958c13.587-2.638,29.704-3.888,45.923-3.11c0.044,1.476,1.55,2.749,1.196,3.827
		c-14.94,0.505-29.681,2.479-41.856,5.502c-1.788,0.444-4.141,0.441-4.783,1.675c13.902-3.08,30.112-5.927,47.357-6.458
		c7.385,14.06,22.754,20.137,41.855,22.481c-3.835,2.702-6.388,6.688-7.654,11.96c-3.773,1.422-6.758,2.924-11.959,2.63
		c-13.843-0.78-13.604-15.076-24.875-18.416c-1.894-0.562-6.978-1.069-7.413,0.955c-0.52,2.414,4.035,4.047,5.501,5.262
		c5.271,4.376,5.959,10.229,9.807,15.787c5.431,7.845,16.34,10.56,28.462,7.893c-0.413,9.382,1.754,20.405-3.588,24.875
		c-1.438,1.203-4.646,1.659-4.306,3.827c0.385,2.451,5.389,1.491,7.894,0.957c2.875-0.614,5.642-1.816,7.175-3.349
		c7.072-7.072-1.621-31.994,6.219-38.029c-0.54,10.584,0.806,24.159-0.239,33.962c-0.181,1.697-0.78,3.847-1.435,5.262
		c-1.165,2.514-3.913,3.417-3.109,6.458c2.094,1.57,4.658,0.376,6.219-0.238c7.857-3.092,9.049-9.227,9.088-19.134
		c0.036-8.807,0.281-19.258,0.479-27.506c0.877,0,1.754,0,2.631,0c-0.276,8.512,0.259,18.842,0.239,27.745
		c-0.021,9.716,1.522,15.918,8.851,18.895c1.542,0.627,4.606,1.97,6.456,0c0.504-2.91-1.947-3.888-3.107-6.459
		c-0.708-1.562-1.267-3.525-1.436-5.5c-0.823-9.574,0.135-22.914-0.239-33.246c8.178,6.365-1.053,29.483,5.74,37.312
		c1.546,1.785,4.684,3.228,7.174,3.828c2.437,0.586,8.199,1.515,8.372-1.197c0.137-2.101-3.738-2.942-5.023-4.306
		c-1.494-1.583-2.608-4.064-2.868-6.696c-1.186-11.985,2.37-30.91-3.829-39.465c-1.019-1.407-2.598-2.501-4.065-4.065
		c19.154-2.053,34.482-7.933,41.138-22.481c15.313,0.568,30.111,2.458,42.575,5.5c1.629,0.398,3.586,1.358,5.261,0.717
		c-13.675-4.581-30.55-5.963-47.595-7.175c0.479-1.196,0.557-2.788,1.434-3.588C224.936,143.768,241.313,144.95,255.096,147.648z
		 M82.891,169.414c0.471-2.07,3.725-1.491,3.587,0C86.346,170.821,83.54,171.186,82.891,169.414z M87.913,172.762
		c-1.247-2.065,3.247-2.764,3.349-0.72C91.129,173.59,88.915,173.347,87.913,172.762z M90.782,176.11
		c-0.509-2.578,3.192-2.233,3.588-0.719C94.281,176.831,91.691,176.893,90.782,176.11z M93.414,179.697
		c-0.186-1.923,3.195-1.78,3.588-0.478C97.143,181.059,93.822,181.073,93.414,179.697z M96.284,183.525
		c-0.329-1.958,3.634-1.951,3.587-0.241C99.567,184.852,96.881,184.703,96.284,183.525z M100.35,186.634
		c-0.187-1.922,3.197-1.782,3.588-0.479C104.078,187.995,100.758,188.009,100.35,186.634z M106.09,189.266
		c-0.867-2.521,3.367-2.474,3.348-0.717C109.406,189.992,106.932,190.012,106.09,189.266z M114.939,189.266
		c-0.815,0.751-3.057,0.657-3.349-0.478c-0.251-1.782,2.468-1.712,3.349-0.958C114.939,188.308,114.939,188.788,114.939,189.266z
		 M117.332,188.308c-0.785-2.514,2.961-2.312,3.348-0.956C120.933,189.133,118.212,189.062,117.332,188.308z"/>
</g>
</svg>
